{"title":"House of 1000 Corpses &amp; BluRay Xtras (2002) 1080p","uid":11069640,"size":4829689361,"categoryP":"video","categoryS":"hd___movies","magnet":"?xt=urn:btih:8d3ff637e4ff16ff3537f03c22aef249eaa236a7&amp;dn=House+of+1000+Corpses+%26amp%3B+BluRay+Xtras+%282002%29+1080p&amp;tr=udp%3A%2F%2Ftracker.openbittorrent.com%3A80&amp;tr=udp%3A%2F%2Fopen.demonii.com%3A1337&amp;tr=udp%3A%2F%2Ftracker.coppersurfer.tk%3A6969&amp;tr=udp%3A%2F%2Fexodus.desync.com%3A6969","seeders":0,"leechers":1,"uploader":"AlienMethod","files":-1,"time":1411251068,"description":"Double-Encode x264 1080p\n2-Channel AAC @192kbpb Audio [1]\nDS5.1 AC3 @448kbps Audio [2]\nDirector (Rob Zombie) Commentary [Source] Audio Track Incl [3]\nBlyRay Extras (Making Of, Casting Interviews, Etc.) Incl.\n\n&quot;Two teenage couples traveling across the backwoods of Texas searching for urban legends of murder end up as prisoners of a bizarre and sadistic backwater family of serial killers.&quot;\n\nVideo\nID : 1\nFormat : AVC\nFormat/Info : Advanced Video Codec\nFormat profile : &lt;a class=&quot;__cf_email__&quot; href=&quot;/cdn-cgi/l/email-protection&quot; data-cfemail=&quot;e4ac8d838ca4a8d1cad4&quot;&gt;[email&amp;#160;protected]&lt;/a&gt;&lt;script data-cfhash='f9e31' type=&quot;text/javascript&quot;&gt;\n/* &lt;![CDATA[ */!function(){try{var t=&quot;currentScript&quot;in document?document.currentScript:function(){for(var t=document.getElementsByTagName(&quot;script&quot;),e=t.length;e--;)if(t[e].getAttribute(&quot;data-cfhash&quot;))return t[e]}();if(t&amp;&amp;t.previousSibling){var e,r,n,i,c=t.previousSibling,a=c.getAttribute(&quot;data-cfemail&quot;);if(a){for(e=&quot;&quot;,r=parseInt(a.substr(0,2),16),n=2;a.length-n;n+=2)i=parseInt(a.substr(n,2),16)^r,e+=String.fromCharCode(i);e=document.createTextNode(e),c.parentNode.replaceChild(e,c)}t.parentNode.removeChild(t);}}catch(u){}}()/* ]]&gt; */&lt;/script&gt;\nFormat settings, CABAC : Yes\nFormat settings, ReFrames : 5 frames\nCodec ID : V_MPEG4/ISO/AVC\nDuration : 1h 28mn\nNominal bit rate : 5 499 Kbps\nWidth : 1 904 pixels\nHeight : 1 072 pixels\nDisplay aspect ratio : 16:9\nFrame rate mode : Constant\nFrame rate : 23.976 fps\nColor space : YUV\nChroma subsampling : 4:2:0\nBit depth : 8 bits\nScan type : Progressive\nBits/(Pixel*Frame) : 0.112\nWriting library : x264 core 142 r2479 dd79a61\nDefault : Yes\nForced : No\n\nAudio #1\nID : 2\nFormat : AAC\nFormat/Info : Advanced Audio Codec\nFormat profile : LC\nCodec ID : A_AAC\nDuration : 1h 28mn\nChannel(s) : 2 channels\nChannel positions : Front: L R\nSampling rate : 48.0 KHz\nCompression mode : Lossy\nDelay relative to video : 9ms\nLanguage : English\nDefault : Yes\nForced : No\n\nAudio #2\nID : 3\nFormat : AC-3\nFormat/Info : Audio Coding 3\nMode extension : CM (complete main)\nFormat settings, Endianness : Big\nCodec ID : A_AC3\nDuration : 1h 28mn\nBit rate mode : Constant\nBit rate : 448 Kbps\nChannel(s) : 6 channels\nChannel positions : Front: L C R, Side: L R, LFE\nSampling rate : 48.0 KHz\nBit depth : 16 bits\nCompression mode : Lossy\nStream size : 285 MiB (7%)\nLanguage : English\nDefault : No\nForced : No\n\nAudio #3\nID : 4\nFormat : AC-3\nFormat/Info : Audio Coding 3\nFormat profile : Dolby Digital\nMode extension : CM (complete main)\nFormat settings, Endianness : Big\nCodec ID : A_AC3\nDuration : 1h 28mn\nBit rate mode : Constant\nBit rate : 192 Kbps\nChannel(s) : 2 channels\nChannel positions : Front: L R\nSampling rate : 48.0 KHz\nBit depth : 16 bits\nCompression mode : Lossy\nStream size : 122 MiB (3%)\nLanguage : English\nDefault : No\nForced : No\n\nText\nID : 5\nFormat : UTF-8\nCodec ID : S_TEXT/UTF8\nCodec ID/Info : UTF-8 Plain Text\nDefault : Yes\nForced : No\n\nm/ AM m/","torrent":{"xt":"urn:btih:8d3ff637e4ff16ff3537f03c22aef249eaa236a7","amp;dn":"House+of+1000+Corpses+%26amp%3B+BluRay+Xtras+%282002%29+1080p","amp;tr":["udp%3A%2F%2Ftracker.openbittorrent.com%3A80","udp%3A%2F%2Fopen.demonii.com%3A1337","udp%3A%2F%2Ftracker.coppersurfer.tk%3A6969","udp%3A%2F%2Fexodus.desync.com%3A6969"],"infoHash":"8d3ff637e4ff16ff3537f03c22aef249eaa236a7","infoHashBuffer":{"type":"Buffer","data":[141,63,246,55,228,255,22,255,53,55,240,60,34,174,242,73,234,162,54,167]},"announce":[],"urlList":[]}}